<svg id="Layer_1" data-name="Layer 1" xmlns="http://www.w3.org/2000/svg" viewBox="0 0 1131.25 583.43"><title>world-coverage</title><path d="M-626,285c15.1,10.35,30.27,20.6,45.28,31.07q53.47,37.31,106.83,74.79c9.43,6.61,10.39,11.86,3.84,21.24q-10.44,15-20.94,29.87c-3.49,4.95-7.43,6.15-11.35,3.59s-4.41-7.08-.88-12.18c6.83-9.85,13.71-19.65,21-30l-145.59-102-104.62,149.4c2,.18,3.37.4,4.72.41,13,0,26-.1,39,.09,3.46.05,5.16-.95,6.64-4.28,9.81-22.06,25.19-38.65,48.2-47.25,10.58-4,21.41-4.81,32.31-1.22,18.55,6.13,29.78,24.18,29,46.51-.06,1.8,0,3.61,0,6.16h5.28c11.16,0,22.33-.13,33.49,0,21.61.32,37.48,16.2,37.67,37.78q.24,27.25,0,54.5c0,3.48.92,5,4.4,6.38,15.24,5.88,24,17.21,24.92,33.58a318.7,318.7,0,0,1,.05,35c-.87,16.84-9.9,28.26-25.49,34.27-3.14,1.21-3.89,2.64-3.87,5.71.13,17.83.11,35.66.06,53.49-.07,23.42-15.78,39.07-39.29,39.14-17.33,0-34.66,0-52,0-.67,0-1.33,0-2,0-5.3-.19-8.69-3.25-8.55-7.7.13-4.29,3.39-7.24,8.47-7.27,13.33-.07,26.68-.56,40,.08,33.43,1.6,39.91-6.73,38.47-38.75-.56-12.31-.09-24.66-.09-37V655c-14.78,0-29.06.1-43.34,0-6.81-.07-13.72,0-20.41-1.05-25.15-4-44.65-28.08-43.91-53.7.77-26.59,20.65-49.86,46.26-52,18-1.53,36.28-.75,54.43-1,2.13,0,4.25,0,7,0V534.85q0-21.75,0-43.5c0-16.3-8.75-25.16-24.9-25.16H-856c-16.26,0-25,8.79-25,25q0,110.24,0,220.47c0,15.55,8.86,24.33,24.57,24.36,17.33,0,34.66,0,52,0,6.62,0,10.91,5.19,8.06,10.22a10.35,10.35,0,0,1-7.4,4.54c-19.16.36-38.33.54-57.48,0-18.94-.5-34.36-16.76-34.68-35.94-.24-14.66-.07-29.33-.07-44q0-90,0-180c0-14.67,5.43-26.07,17.67-34.34,1.47-1,2.4-3.77,2.41-5.73.17-21.83.11-43.66.11-65.49,0-1.34,0-2.67,0-4,.3-5,3.37-8.27,7.61-8.23s7.32,3.33,7.33,8.36c.07,21.67,0,43.33,0,65v4.3h21.47V313.37h-21.47v16.75c0,6.5.06,13,0,19.49-.07,5.2-2.82,8.32-7.19,8.43-4.59.11-7.69-3.08-7.74-8.49-.11-13-.14-26,0-39,.09-8.14,4.92-12.49,13.56-12.5q43-.06,86,0,44.24,0,88.49,0c10.9,0,14.83,3.88,14.84,14.64,0,8.32,0,16.64,0,26.28,1.65-2.07,2.66-3.21,3.53-4.45,9.57-13.64,19-27.37,28.74-40.88,2.35-3.26,5.74-5.77,8.65-8.63ZM-787.84,451.18c10.89,0,21.36-.15,31.82.09a8.12,8.12,0,0,0,7.77-4c17.65-25.45,35.23-51,53.38-76.05,5.17-7.15,7.59-14.16,7.1-22.94-.63-11.58-.15-23.21-.15-35h-99.92ZM-535.58,640c10,0,20,.06,30,0,13.53-.11,23.46-9.46,23.92-23,.36-10.48.34-21,0-31.47-.4-13.16-9.62-22.88-22.73-23.15-20.64-.43-41.32-.66-61.94.07A38.56,38.56,0,0,0-603.75,602c.7,21.48,17.78,37.83,39.69,38C-554.57,640-545.08,640-535.58,640ZM-823.72,313.17V450.76h20.26V313.17Zm235.57,137.77c1.4-12.38.58-24-9.15-32.83-9.47-8.57-20.64-8.38-31.88-4.18-17.61,6.58-29.53,19.31-37.71,35.88-.11.22.11.62.22,1.13Z" transform="translate(1597.09 -285)" fill="#e61632"/><path d="M-706,797c-8.11-2.27-16.48-3.85-24.27-6.92-38.12-15-60.52-53.92-55.64-95.8,4.53-39,37-71.84,76.5-77.45,50.1-7.11,94.8,26.15,103,76.67,7.72,47.34-25.76,93.37-74.33,102.23-2.11.38-4.2.84-6.3,1.27Zm85.52-90.78a75.51,75.51,0,0,0-75.9-75.34,75.69,75.69,0,0,0-75.38,75.42c0,41.61,34.06,75.72,75.71,75.7A75.74,75.74,0,0,0-620.48,706.22Z" transform="translate(1597.09 -285)" fill="#e61632"/><path d="M-508.52,396.82c-.94,2.13-1.54,3.84-2.4,5.4-2.12,3.86-1.7,7.21,1.41,10.39,4.53,4.62,4.74,7,1.21,12.2-3.1,4.52-6.21,9-9.48,13.44-3,4.09-7.28,5-10.81,2.52s-4.18-6.68-1.49-11a18.83,18.83,0,0,1,2.28-3.26c3.66-3.8,4.74-7.56,1.92-12.68-1.47-2.66-1.6-6.57-1.06-9.69.69-4-.81-6.09-4-7.92a42.4,42.4,0,0,1-6.88-4.92c-3.14-2.82-3.61-6.4-1.21-9.85s6-4.49,9.61-2.19c6,3.84,11.84,8,17.51,12.31C-510.32,392.78-509.61,395.06-508.52,396.82Z" transform="translate(1597.09 -285)" fill="#e61632"/><path d="M-651.07,352.59c1.15-2.66,1.63-4.45,2.6-5.91,3.23-4.84,6.62-9.58,10-14.34,2.57-3.67,6.1-4.78,10-2.77,4.93,2.53,8.73,2,12.21-2.5,2.91-3.74,6.71-4,10.6-1.35,5.22,3.57,10.45,7.12,15.54,10.87,4,3,4.73,7.44,2.15,10.89-2.46,3.28-6.69,3.83-10.71,1.35a23.9,23.9,0,0,1-2.86-2c-4.36-3.68-8.48-6.21-14.39-2.1-2.38,1.65-6.44,1.43-9.68,1.19s-4.92.65-6.45,3.26-3,5.5-5.3,7.16c-2.13,1.54-5.63,2.67-8,2S-649.22,354.59-651.07,352.59Z" transform="translate(1597.09 -285)" fill="#e61632"/><path d="M-561.41,629c-13.77,0-24.9-8.33-28.26-20.11a27.82,27.82,0,0,1,11.6-31,27.83,27.83,0,0,1,33.38,2.32c4.24,3.69,5.12,8.32,2.24,11.77s-7.1,3.51-11.86-.18c-6.13-4.75-13.1-4.47-17.94.7a12.61,12.61,0,0,0-.12,17.22c4.74,5.24,11.62,5.61,18,1,4.81-3.53,8.95-3.4,11.79.37s1.85,7.93-2.75,11.64A27.24,27.24,0,0,1-561.41,629Z" transform="translate(1597.09 -285)" fill="#e61632"/><path d="M-702.46,669.84c.91-10.49,2.82-13.6,8-13.42s6.9,3.35,7.61,13.72c2.7,0,5.46-.12,8.22,0,5,.27,8.1,3.33,8,7.71s-3.12,7.16-8.37,7.22c-7.15.08-14.31,0-21.47,0-5.67.05-8.6,2.4-8.68,6.76-.09,4.56,2.92,7,8.87,7,3.33,0,6.66,0,10,0,11.72.18,20.92,8,22.23,18.87,1.36,11.22-5.22,20.87-16.45,24.11-.63.18-1.29.29-2.35.53-.76,5.72,1.21,13.67-8.5,13.7-4.72,0-6.11-2.79-7.19-13.59-3.28,0-6.69.06-10.09,0-5.53-.13-8.86-2.88-9-7.28-.15-4.56,3.3-7.57,9.08-7.66,7-.11,14,0,21-.06,5.66-.06,8.6-2.45,8.63-6.78s-2.9-6.76-8.54-6.83c-3.5,0-7,0-10.49,0-11.6-.2-21-8.31-22.07-19.06-1.23-12.15,5.86-21.72,18-24.28C-704.94,670.33-703.8,670.11-702.46,669.84Z" transform="translate(1597.09 -285)" fill="#e61632"/><path d="M-1358.65,389.92h1.87c2.14.28,4.27.58,6.42.82,12,1.31,24.24,1.9,36.15,4A230.1,230.1,0,0,1-1205.4,445.5c53.32,44.64,82.11,102,86.51,171.62a227.38,227.38,0,0,1-2.53,51.23c-7.44,45.36-25.9,85.82-57,119.75-56.82,62-127.65,88.07-211,78.34-42.8-5-81.35-21.78-115.24-48.44-48.29-38-77.74-87.51-88.72-148-1.61-8.84-2.47-17.81-3.67-26.73V613.4c1.1-8,2-16,3.32-24a232.32,232.32,0,0,1,40-97.11c1.85-2.61,2-4.72.81-7.65-7-17.77-6.15-35.54,2-52.57,19.59-40.93,68-53.92,105.91-28.71a7.29,7.29,0,0,0,7.3.88,232.69,232.69,0,0,1,62.38-13.07C-1369.8,390.82-1364.22,390.35-1358.65,389.92Zm194.17,351.85c-8-3.63-15.56-6.93-23-10.41-3.64-1.7-5.46-.71-7.66,2.75q-21.19,33.27-43,66.14c-4.89,7.4-10.88,7.34-15.95.15-8.35-11.83-16.52-23.79-24.71-35.73-2.53-3.68-4.88-7.48-7.66-11.76-2.32,3-4.3,5.52-6.26,8.08-3.79,4.93-7.29,10.13-11.41,14.77-7.13,8-17.54,8.17-25.1.57-2.06-2.07-4.25-4.4-5.26-7-3.64-9.55-8.2-19.06-9.79-29-1.84-11.54-1.13-23.52-1.15-35.32,0-13-4.68-19.88-17.1-23.15-19.55-5.16-39.19-6.46-59.11-1.56-15,3.69-27.92-.46-38.29-12.2-20-22.64-12.71-51.6,15.5-61.28,3.24-1.11,6.44-2.35,9.71-3.35a133.28,133.28,0,0,0,38-18.5c12.69-8.9,24.6-18.67,32.65-32.27,7.66-12.93,8.63-25.8-.91-38.34-3.39-4.46-7-8.75-10.39-13.22-14-18.52-19.77-39.12-14.23-61.95,2.58-10.64,6.75-20.89,10.27-31.54a202,202,0,0,0-49.14,10.21c0,.52-.12.7-.06.79,1.32,2.11,2.73,4.16,4,6.31,8.09,13.84,12.75,28.72,9.6,44.66a131.8,131.8,0,0,1-9.72,29.07c-14.27,31.15-33.52,59.31-53.76,86.8-4.65,6.32-10.36,6.17-15.19-.39-17.78-24.08-34.31-49-48.31-75.46-.6-1.14-1.33-2.2-2.23-3.68-2.56,4.12-5,7.59-7,11.27-2.68,4.9-6.57,9.75-7.27,15-1.86,13.85-3.63,28-3,41.84.92,18.91,3.86,37.74,6.41,56.54,4.12,30.36,15.83,57.09,38.45,78.5,11.92,11.3,25.19,18.56,42.31,16.77,19.23-2,36.81-9,53.71-17.77,15.43-8,30.5-7.79,45.43.65,18.81,10.63,28.47,27.69,31.08,48.44,3,23.79-5,44-28.9,52.4a20,20,0,0,0-9.79,8.13c-6.25,10.58-5.78,21.71,0,32.49a5.81,5.81,0,0,0,4,2.49,214.8,214.8,0,0,0,64.15-3.29,221.34,221.34,0,0,0,102.48-50A220,220,0,0,0-1164.48,741.77Zm-152.8,24.16a16.92,16.92,0,0,0,2-1.71c6.44-8.19,12.92-16.36,19.17-24.69.59-.8.06-2.85-.52-4-4.18-8.51-8.62-16.91-12.77-25.43-5.17-10.61-8.83-21.81-8.45-33.66,1.39-43.4,36.62-74,79.71-69.77,41.89,4.07,72.46,47,61.35,86.32-2.12,7.54-5,14.86-7.43,22l27.29,12.73c.31-.52.67-1,.94-1.59A221.94,221.94,0,0,0-1134.53,621c-.17-4.49-.06-9.24-1.49-13.38-10-28.7-43.93-48-73.67-42.4a134.44,134.44,0,0,1-15.7,2.2c-16.32,1.11-31.78-3.21-47.11-8-41.31-13-45.9-62.73-24.61-89.43,7.54-9.46,17.75-13.18,29.8-12.2,13.25,1.07,23.8-4.24,32.62-13.9a12.78,12.78,0,0,0-1.33-1.14c-36.52-23.48-76.45-35.72-119.9-36.12a6.35,6.35,0,0,0-4.56,2.74,124.67,124.67,0,0,0-7,13.18c-12.32,26.57-11.09,51.35,8.93,74.26,5.54,6.35,10.6,13.74,13.64,21.52,7.05,18,1.17,34.34-9.76,49-14.77,19.78-34.29,33.86-56.54,44-11.15,5.09-23,8.58-34.4,13.16-7.49,3-9.6,7-9.22,15,.86,18.12,13.62,28.46,31.26,24.71a133.31,133.31,0,0,1,65.12,2.36c21,6,30.78,20.28,28.82,41.87-1.16,12.68-1.23,25.22,2.77,37.45C-1324.55,752.85-1322.72,760.16-1317.28,765.93Zm-83.41,83.65c-.16-1.51-.15-2-.26-2.43-6.43-25.42,2.58-43.93,26.49-54.34,6.84-3,11.58-8,13.47-15.18,4.72-18,.29-34-12.24-47.46-10.25-11-25.8-16.35-42.25-6.79-14.27,8.3-30,13.51-46.29,16.92-23,4.82-43.47.1-61.27-15.63-26.44-23.36-41.56-52.75-46.93-87.39-2.47-15.9-4.89-31.82-7.29-47.51-13.62,28.88.13,109.76,26,152.5C-1516.66,799.53-1466.67,835.09-1400.69,849.58Zm179.23-396.12c-.65.62-1.13,1-1.55,1.47-12.84,13.57-28.21,20.56-47.23,18.62a15.42,15.42,0,0,0-12.73,4.73c-7.78,7.79-10.48,17.56-10.45,28.11,0,14.74,4.47,28.08,18.65,34.55,18.43,8.39,37.85,13.43,58.5,9.22,13.33-2.71,26.56-2.77,39.67,1.45a111.44,111.44,0,0,1,33.31,17.79C-1149.06,533.63-1191,471.39-1221.46,453.46Zm-25.07,331.31c3.93-5.6,7.14-10,10.17-14.5,14.07-20.93,27.9-42,38-65.22,3.68-8.43,7.19-17.63,7.68-26.65,1.64-30.6-25.75-57.18-56.45-56.41-38,1-67,39.82-49.51,77.6A369.53,369.53,0,0,0-1278.93,734C-1268.81,750.92-1257.75,767.28-1246.53,784.77ZM-1485.84,568.5l7.77-11.15c15.56-22.37,30.47-45.18,41.15-70.36,3.35-7.9,6.47-16.57,6.76-25,1.14-33.61-31.47-60.56-64.75-55-32.43,5.46-59.56,41.6-40.22,79.1,11.25,21.8,24.05,42.81,36.44,64C-1495,556.39-1490.4,562.05-1485.84,568.5Z" transform="translate(1597.09 -285)" fill="#e61632"/><path d="M-1214.34,669.77a32,32,0,0,1-31.5,32.13c-17.29.39-32.33-14.49-32.29-32A32.37,32.37,0,0,1-1246.24,638C-1228.91,637.89-1214.5,652.24-1214.34,669.77Zm-16,.35a15.89,15.89,0,0,0-16-16.08,16.11,16.11,0,0,0-15.89,15.79,16.16,16.16,0,0,0,16.08,16.09A15.88,15.88,0,0,0-1230.31,670.12Z" transform="translate(1597.09 -285)" fill="#e61632"/><path d="M-1485.59,422.47A31.78,31.78,0,0,1-1454,454.38a32,32,0,0,1-31.84,31.82,32,32,0,0,1-31.86-32.26A31.79,31.79,0,0,1-1485.59,422.47Zm15.68,31.75A15.76,15.76,0,0,0-1486,438.44a15.79,15.79,0,0,0-15.74,15.67,16.07,16.07,0,0,0,15.86,16.14A16,16,0,0,0-1469.91,454.22Z" transform="translate(1597.09 -285)" fill="#e61632"/></svg>